{
  "accessors": [
    {
      "bufferView": 2,
      "componentType": 5126,
      "count": 17922,
      "max": [
        0.8314274549484253,
        0.1257561892271042,
        1.7972246408462524
      ],
      "min": [
        -0.831427276134491,
        -0.1390102505683899,
        -0.0005659954622387886
      ],
      "type": "VEC3"
    },
    {
      "bufferView": 2,
      "byteOffset": 215064,
      "componentType": 5126,
      "count": 17922,
      "type": "VEC3"
    },
    {
      "bufferView": 1,
      "componentType": 5126,
      "count": 17922,
      "type": "VEC2"
    },
    {
      "bufferView": 0,
      "componentType": 5125,
      "count": 96648,
      "type": "SCALAR"
    },
    {
      "bufferView": 2,
      "byteOffset": 430128,
      "componentType": 5126,
      "count": 363,
      "max": [
        0.0510806180536747,
        -0.04697323217988014,
        1.702009677886963
      ],
      "min": [
        0.015992315486073494,
        -0.07779049128293991,
        1.6672359704971313
      ],
      "type": "VEC3"
    },
    {
      "bufferView": 2,
      "byteOffset": 434484,
      "componentType": 5126,
      "count": 363,
      "type": "VEC3"
    },
    {
      "bufferView": 1,
      "byteOffset": 143376,
      "componentType": 5126,
      "count": 363,
      "type": "VEC2"
    },
    {
      "bufferView": 0,
      "byteOffset": 386592,
      "componentType": 5125,
      "count": 1920,
      "type": "SCALAR"
    },
    {
      "bufferView": 2,
      "byteOffset": 438840,
      "componentType": 5126,
      "count": 363,
      "max": [
        -0.015959937125444412,
        -0.04713204875588417,
        1.7022372484207153
      ],
      "min": [
        -0.05108145624399185,
        -0.07786339521408081,
        1.6673409938812256
      ],
      "type": "VEC3"
    },
    {
      "bufferView": 2,
      "byteOffset": 443196,
      "componentType": 5126,
      "count": 363,
      "type": "VEC3"
    },
    {
      "bufferView": 1,
      "byteOffset": 146280,
      "componentType": 5126,
      "count": 363,
      "type": "VEC2"
    },
    {
      "bufferView": 0,
      "byteOffset": 394272,
      "componentType": 5125,
      "count": 1920,
      "type": "SCALAR"
    }
  ],
  "asset": {
    "generator": "fab-model-conversion",
    "version": "2.0"
  },
  "bufferViews": [
    {
      "buffer": 0,
      "byteLength": 401952,
      "target": 34963
    },
    {
      "buffer": 0,
      "byteLength": 149184,
      "byteOffset": 401952,
      "byteStride": 8,
      "target": 34962
    },
    {
      "buffer": 0,
      "byteLength": 447552,
      "byteOffset": 551136,
      "byteStride": 12,
      "target": 34962
    }
  ],
  "buffers": [
    {
      "byteLength": 998688,
      "uri": "scene.bin"
    }
  ],
  "materials": [
    {
      "doubleSided": true,
      "name": "Scene_-_Root",
      "pbrMetallicRoughness": {
        "metallicFactor": 0.0,
        "roughnessFactor": 0.6
      }
    }
  ],
  "meshes": [
    {
      "name": "Body__0",
      "primitives": [
        {
          "attributes": {
            "NORMAL": 1,
            "POSITION": 0,
            "TEXCOORD_0": 2
          },
          "indices": 3,
          "material": 0,
          "mode": 4
        }
      ]
    },
    {
      "name": "leye__0",
      "primitives": [
        {
          "attributes": {
            "NORMAL": 5,
            "POSITION": 4,
            "TEXCOORD_0": 6
          },
          "indices": 7,
          "material": 0,
          "mode": 4
        }
      ]
    },
    {
      "name": "reye__0",
      "primitives": [
        {
          "attributes": {
            "NORMAL": 9,
            "POSITION": 8,
            "TEXCOORD_0": 10
          },
          "indices": 11,
          "material": 0,
          "mode": 4
        }
      ]
    }
  ],
  "nodes": [
    {
      "children": [
        1
      ],
      "matrix": [
        1.0,
        0.0,
        0.0,
        0.0,
        0.0,
        2.220446049250313e-16,
        -1.0,
        0.0,
        0.0,
        1.0,
        2.220446049250313e-16,
        0.0,
        0.0,
        0.0,
        0.0,
        1.0
      ],
      "name": "Sketchfab_model"
    },
    {
      "children": [
        2
      ],
      "matrix": [
        0.009999999776482582,
        0.0,
        0.0,
        0.0,
        0.0,
        0.0,
        0.009999999776482582,
        0.0,
        0.0,
        -0.009999999776482582,
        0.0,
        0.0,
        0.0,
        0.0,
        0.0,
        1.0
      ],
      "name": "0c8f9cc7da204ef697e263cb99e6588c.fbx"
    },
    {
      "children": [
        3,
        5,
        7
      ],
      "name": "RootNode"
    },
    {
      "children": [
        4
      ],
      "matrix": [
        100.0,
        0.0,
        0.0,
        0.0,
        0.0,
        -1.629206793918314e-05,
        -99.99999999999868,
        0.0,
        0.0,
        99.99999999999868,
        -1.629206793918314e-05,
        0.0,
        0.0,
        0.0,
        0.0,
        1.0
      ],
      "name": "Body"
    },
    {
      "mesh": 0,
      "name": "Body__0"
    },
    {
      "children": [
        6
      ],
      "matrix": [
        100.0,
        0.0,
        0.0,
        0.0,
        0.0,
        -1.629206793918314e-05,
        -99.99999999999868,
        0.0,
        0.0,
        99.99999999999868,
        -1.629206793918314e-05,
        0.0,
        0.0,
        0.0,
        0.0,
        1.0
      ],
      "name": "leye"
    },
    {
      "mesh": 1,
      "name": "leye__0"
    },
    {
      "children": [
        8
      ],
      "matrix": [
        100.0,
        0.0,
        0.0,
        0.0,
        0.0,
        -1.629206793918314e-05,
        -99.99999999999868,
        0.0,
        0.0,
        99.99999999999868,
        -1.629206793918314e-05,
        0.0,
        0.0,
        0.0,
        0.0,
        1.0
      ],
      "name": "reye"
    },
    {
      "mesh": 2,
      "name": "reye__0"
    }
  ],
  "scene": 0,
  "scenes": [
    {
      "name": "Sketchfab_Scene",
      "nodes": [
        0
      ]
    }
  ]
}
